<svg width="619" height="644" viewBox="0 0 619 644" fill="none" xmlns="http://www.w3.org/2000/svg">
<path d="M550.882 34.3305C607.054 76.3107 636.478 154.019 607.946 215.649C580.306 277.28 495.602 322.833 470.636 384.463C446.562 446.094 482.227 523.802 468.853 577.393C454.587 630.092 392.173 658.674 344.917 636.344C298.553 613.121 269.129 539.879 200.474 504.151C132.711 469.317 25.7158 471.996 4.31686 438.948C-17.0821 406.793 45.3316 338.017 97.9374 295.144C151.435 251.377 194.233 233.513 231.681 186.174C268.237 138.834 298.553 61.1264 355.617 24.5054C411.789 -12.1156 494.71 -6.75649 550.882 34.3305Z" fill="url(#paint0_linear_55_567)"/>
<defs>
<linearGradient id="paint0_linear_55_567" x1="0" y1="644" x2="643.496" y2="25.4849" gradientUnits="userSpaceOnUse">
<stop stop-color="#2F855A"/>
<stop offset="1" stop-color="#D4AD37"/>
</linearGradient>
</defs>
</svg>
